<svg id="Layer_5" enable-background="new 0 0 64 64" height="512" viewBox="0 0 64 64" width="512" xmlns="http://www.w3.org/2000/svg" xmlns:xlink="http://www.w3.org/1999/xlink"><linearGradient id="SVGID_1_" gradientUnits="userSpaceOnUse" x1="32" x2="32" y1="63" y2="1"><stop offset="0" stop-color="#9f2fff"/><stop offset="1" stop-color="#0bb1d3"/></linearGradient><path d="m18 33v2c1.654 0 3 1.346 3 3h-2c0-.551-.449-1-1-1h-3v1c0 .551.449 1 1 1h2c1.654 0 3 1.346 3 3v3h-3v2h-2v-2c-1.654 0-3-1.346-3-3h2c0 .551.449 1 1 1h3v-1c0-.551-.449-1-1-1h-2c-1.654 0-3-1.346-3-3v-3h3v-2zm45-2.05c0 1.589-.619 3.083-1.743 4.207l-1.843 1.843.672.672c.589.589.914 1.373.914 2.207v.242c0 .834-.325 1.618-.914 2.207l-7.758 7.758c-.211.212-.328.493-.328.793 0 .618.503 1.121 1.121 1.121.3 0 .581-.117.793-.328l.379-.379 1.414 1.414-.379.379c-.589.589-1.373.914-2.207.914-1.721 0-3.121-1.4-3.121-3.121 0-.834.325-1.618.914-2.207l7.758-7.758c.211-.212.328-.493.328-.793v-.242c0-.3-.117-.581-.328-.793l-.672-.672-13 13v7.586h-7.788l-8.486 3.771c-.341.152-.703.229-1.076.229-1.461 0-2.65-1.189-2.65-2.65 0-.373.077-.735.229-1.076l.121-.274h-24.35v-47.414l10.586-10.586h33.414v33.586l7.843-7.843c1.124-1.124 2.618-1.743 4.207-1.743 3.281 0 5.95 2.669 5.95 5.95zm-31.586 20.05 5.586 5.586 1.586-1.586-5.586-5.586zm10.172 1-5.586-5.586-1.586 1.586 5.586 5.586zm1.414-1.414 11.586-11.586-5.586-5.586-11.586 11.586zm-38.586-39.586h6.586v-6.586zm21.825 46 2.922-6.576 13.839-13.838v-33.586h-30v10h-10v44zm9.024.678-4.941-4.941-3.267 7.35c-.036.083-.055.171-.055.263 0 .451.504.774.914.594zm7.737-4.264-3.586 3.586h3.586zm18-22.464c0-2.178-1.772-3.95-3.95-3.95-1.055 0-2.047.411-2.793 1.157l-3.843 3.843 5.586 5.586 3.843-3.843c.746-.746 1.157-1.738 1.157-2.793zm-33 .05h1v6.335c0 6.925-3.673 13.466-9.585 17.072l-.074.041c-.723.361-1.533.552-2.341.552s-1.618-.191-2.341-.553c-5.986-3.646-9.659-10.187-9.659-17.112v-6.335h1c3.643 0 7.216-1.253 10.061-3.529l.939-.752.939.752c2.845 2.276 6.418 3.529 10.061 3.529zm-1 1.972c-3.615-.202-7.12-1.495-10-3.697-2.88 2.202-6.385 3.495-10 3.697v4.363c0 6.232 3.305 12.119 8.626 15.364.738.362 1.897.408 2.786-.023 5.298-3.25 8.588-9.124 8.588-15.341zm14-21.972h-26v-6h26zm-12-2h4v-2h-4zm-2-2h-4v2h4zm-10 2h4v-2h-4zm22-2h-4v2h4zm-32 8h-2v2h2zm4 0h-2v2h2zm30 0h-28v2h28zm0 4h-36v2h36zm-2.009 6h2.009v-2h-2.009zm-1.925-2h-32.066v2h32.066zm-6.066 6h10v-2h-10zm0 4h10v-2h-10zm0 4h10v-2h-10z" fill="url(#SVGID_1_)"/></svg>