<svg id="Layer_5" enable-background="new 0 0 64 64" height="512" viewBox="0 0 64 64" width="512" xmlns="http://www.w3.org/2000/svg" xmlns:xlink="http://www.w3.org/1999/xlink"><linearGradient id="SVGID_1_" gradientUnits="userSpaceOnUse" x1="32" x2="32" y1="63" y2="1"><stop offset="0" stop-color="#9f2fff"/><stop offset="1" stop-color="#0bb1d3"/></linearGradient><path d="m15 23v-2c-1.654 0-3-1.346-3-3h2c0 .552.448 1 1 1h3v-1c0-.552-.448-1-1-1h-2c-1.654 0-3-1.346-3-3v-3h3v-2h2v2c1.654 0 3 1.346 3 3h-2c0-.552-.448-1-1-1h-3v1c0 .552.448 1 1 1h2c1.654 0 3 1.346 3 3v3h-3v2zm1 4c-6.065 0-11-4.935-11-11s4.935-11 11-11 11 4.935 11 11-4.935 11-11 11zm0-2c4.963 0 9-4.037 9-9s-4.037-9-9-9-9 4.037-9 9 4.037 9 9 9zm45.257-13.843-11.842 11.843h8.585c2.757 0 5 2.243 5 5v22c0 2.757-2.243 5-5 5h-21v5.52c0 1.368-1.112 2.48-2.48 2.48-.561 0-1.111-.192-1.549-.543l-9.322-7.457h-9.649c-2.757 0-5-2.243-5-5v-20.743c-4.752-2.52-8-7.513-8-13.257 0-8.271 6.729-15 15-15s15 6.729 15 15c0 2.528-.634 4.908-1.743 7h3.329l20.257-20.257c1.124-1.124 2.618-1.743 4.207-1.743 3.281 0 5.95 2.669 5.95 5.95 0 1.589-.619 3.083-1.743 4.207zm-27.757 17.929 15.586-15.586-2.086-2.086-15.585 15.586zm-6.443 7c-.038.084-.057.173-.057.265 0 .45.503.779.914.593l7.349-3.266-4.94-4.94zm5.943 12.914h24v-20h-13.585l-5.839 5.839-4.576 2.033zm19.586-32-2.086-2.086-15.586 15.586 2.086 2.085zm1.414-1.414 1.586-1.586-5.586-5.586-1.586 1.586zm-38 13.414c7.168 0 13-5.832 13-13s-5.832-13-13-13-13 5.832-13 13 5.832 13 13 13zm31.415-4-2 2h11.585c1.103 0 2 .897 2 2v20c0 1.103-.897 2-2 2h-24c-1.103 0-2-.897-2-2v-11.239l-2.273 1.01c-.342.152-.705.229-1.078.229-1.461 0-2.649-1.188-2.649-2.649 0-.373.077-.735.229-1.077l3.933-8.85.132-.131 1.292-1.293h-2.614c-2.74 3.635-7.079 6-11.972 6-1.755 0-3.433-.319-5-.875v19.875c0 1.654 1.346 3 3 3h10.351l9.869 7.895c.289.235.78-.002.78-.375v-7.52h23c1.654 0 3-1.346 3-3v-22c0-1.654-1.346-3-3-3zm13.585-18.05c0-2.178-1.772-3.95-3.95-3.95-1.055 0-2.047.411-2.793 1.157l-2.843 2.843 5.586 5.586 2.843-2.843c.746-.746 1.157-1.738 1.157-2.793zm-34 44.05h2v-2h-2zm-14 0h12v-2h-12zm0-4h16v-2h-16zm0-4h16v-2h-16zm10-6h-10v2h10zm0-4h-10v2h10zm30 6c0 4.411-3.589 8-8 8s-8-3.589-8-8 3.589-8 8-8 8 3.589 8 8zm-7-5.91v4.91h4.91c-.424-2.507-2.403-4.486-4.91-4.91zm4.91 6.91h-6.91v-6.91c-2.833.478-5 2.942-5 5.91 0 3.309 2.691 6 6 6 2.967 0 5.431-2.167 5.91-5z" fill="url(#SVGID_1_)"/></svg>