<svg id="Layer_5" enable-background="new 0 0 64 64" height="512" viewBox="0 0 64 64" width="512" xmlns="http://www.w3.org/2000/svg" xmlns:xlink="http://www.w3.org/1999/xlink"><linearGradient id="SVGID_1_" gradientUnits="userSpaceOnUse" x1="32" x2="32" y1="63" y2="1"><stop offset="0" stop-color="#9f2fff"/><stop offset="1" stop-color="#0bb1d3"/></linearGradient><path d="m49 47v1c0 .551.448 1 1 1h2c1.654 0 3 1.346 3 3v3h-3v2h-2v-2c-1.654 0-3-1.346-3-3h2c0 .551.448 1 1 1h3v-1c0-.551-.448-1-1-1h-2c-1.654 0-3-1.346-3-3v-3h3v-2h2v2c1.654 0 3 1.346 3 3h-2c0-.551-.448-1-1-1zm1.645 16h-49.645v-49.414l12.586-12.586h35.414v3.051c5.598.507 10 5.221 10 10.949s-4.402 10.442-10 10.949v2.203l1.474-.246 1.402 2.104 1.588-3.176 5.826 1.457-3.182 9.547 4.788 6.839c1.376 1.969 2.104 4.278 2.104 6.678 0 6.421-5.224 11.645-11.645 11.645h-.355zm8.612-17.176-4.778-6.824h-6.959l-4.777 6.825c-1.14 1.629-1.743 3.542-1.743 5.53 0 5.318 4.326 9.645 9.645 9.645h.355.355c5.319 0 9.645-4.327 9.645-9.645 0-1.988-.603-3.901-1.743-5.531zm-9.731-15.731-4.163.694 2.33 6.213h6.586l2.43-7.292-2.174-.543-2.412 4.824zm-1.526-24.093c-4.963 0-9 4.038-9 9s4.037 9 9 9 9-4.038 9-9-4.037-9-9-9zm-43.586 7h8.586v-8.586zm39.713 48c-3.091-2.096-5.127-5.637-5.127-9.645 0-2.401.728-4.71 2.104-6.678l4.774-6.82-3.242-8.645 4.364-.726v-2.537c-5.598-.507-10-5.221-10-10.949s4.402-10.442 10-10.949v-1.051h-32v12h-12v46zm-27.127-33.186 12 7.637v2.549h-2v10h-20v-10h-2v-2.549zm2 14.186h-4v4h4zm6-4h-16v8h4v-6h8v6h4zm1.138-2-9.138-5.814-9.138 5.814zm-.642 20.341c-.436.498-.61.659-.999.659-.39 0-.563-.161-1-.659-.468-.534-1.174-1.341-2.503-1.341-1.328 0-2.034.808-2.502 1.342-.434.497-.608.658-.996.658s-.561-.161-.995-.658c-.467-.534-1.173-1.342-2.501-1.342h-1.465l-.93-1.395c-.67-1.005-1.792-1.605-3-1.605-1.988 0-3.605 1.617-3.605 3.605v3.395h2v-3.395c0-.885.72-1.605 1.605-1.605.538 0 1.037.267 1.336.715l1.524 2.285h2.535c.388 0 .561.161.995.658.467.534 1.173 1.342 2.501 1.342s2.034-.808 2.502-1.342c.435-.497.608-.658.996-.658.389 0 .563.161.999.659.468.534 1.174 1.341 2.504 1.341 1.329 0 2.035-.807 2.503-1.341.437-.498.61-.659 1-.659v-2c-1.33 0-2.036.807-2.504 1.341zm18.211-40.048-1.414 1.414 3.707 3.707 8.707-8.707-1.414-1.414-7.293 7.293zm-24.707-11.293h-2v2h2zm2 2h14v-2h-14zm-4 4h18v-2h-18zm0 4h18v-2h-18zm-10 2h-2v2h2zm2 2h26v-2h-26zm24 4h2v-2h-2zm-4-2v2h2v-2zm-2 0h-22v2h22zm-22 6h30v-2h-30z" fill="url(#SVGID_1_)"/></svg>