<?xml version="1.0" standalone="no"?>
<svg viewBox="0 0 200 200" xmlns="http://www.w3.org/2000/svg">
  <path fill="#8A3FFC" d="M37.4,-63.8C48.8,-58.2,58.5,-48.8,65.5,-37.5C72.5,-26.3,76.8,-13.1,73.1,-2.2C69.3,8.8,57.6,17.6,51.9,31.2C46.2,44.7,46.5,63,38.9,73.5C31.3,84.1,15.6,86.9,-0.1,87C-15.8,87.2,-31.6,84.6,-44.7,77.2C-57.8,69.8,-68.2,57.6,-73.6,43.9C-78.9,30.3,-79.3,15.1,-76.3,1.7C-73.4,-11.7,-67.1,-23.4,-58.5,-31.4C-49.8,-39.4,-38.7,-43.6,-28.6,-49.9C-18.4,-56.3,-9.2,-64.7,1.9,-68C13,-71.3,26,-69.4,37.4,-63.8Z" transform="translate(100 100)" />
</svg>
