<?xml version="1.0" encoding="UTF-8"?>
<svg xmlns="http://www.w3.org/2000/svg" viewBox="0 0 64 64" width="512" height="512"><g id="Outline"><path d="M10.763,43.84a1,1,0,0,0-.183-1.4,6.326,6.326,0,0,0-2.8-1.234A6.54,6.54,0,0,0,5.957,32a6.388,6.388,0,0,0,2.856-4.212A6.387,6.387,0,0,0,7.783,22.8a6.392,6.392,0,0,0,4.258-2.8A6.377,6.377,0,0,0,13,15a6.545,6.545,0,0,0,7.8-5.217A6.537,6.537,0,0,0,30,7.957,6.541,6.541,0,0,0,39.2,9.781a6.257,6.257,0,0,0,.915,2.314,19.836,19.836,0,0,0-5.756,1.428l-.007,0A18.758,18.758,0,0,0,20,15.851a1,1,0,0,0,1.056,1.7,16.673,16.673,0,0,1,10.323-2.467,19.931,19.931,0,0,0-7.65,25.034,1,1,0,1,0,1.828-.812A17.916,17.916,0,0,1,29.584,19a4.645,4.645,0,0,0,1.307.69l.922.309a4.71,4.71,0,0,0,1.493.242,4.775,4.775,0,0,0,2.317-.6l.893-.506a4.632,4.632,0,0,0,2.346-4.842A18.031,18.031,0,0,1,42,14a17.743,17.743,0,0,1,3.581.373,3,3,0,1,0,4.15,1.4,18.1,18.1,0,0,1,6.807,5.647,1,1,0,0,0,1.616-1.178A20.073,20.073,0,0,0,42.667,12.02a4.4,4.4,0,0,1-1.458-4.276l.1-.48a1,1,0,0,0-1.814-.754l-.27.409A4.487,4.487,0,0,1,31.073,5.31l-.09-.491a1,1,0,0,0-1.966,0l-.089.482A4.487,4.487,0,0,1,20.775,6.92l-.27-.41a1,1,0,0,0-1.814.754l.1.477a4.488,4.488,0,0,1-6.906,4.624l-.409-.28a1,1,0,0,0-1.391,1.389l.278.408A4.487,4.487,0,0,1,5.743,20.79l-.48-.1a1,1,0,0,0-.754,1.815l.411.27a4.488,4.488,0,0,1-1.61,8.152l-.49.09a1,1,0,0,0,0,1.966l.481.089a4.487,4.487,0,0,1,1.618,8.153l-.41.27a1,1,0,0,0,.754,1.815l.478-.1a4.386,4.386,0,0,1,3.619.813,1,1,0,0,0,1.4-.183ZM47,18a1,1,0,1,1,1-1A1,1,0,0,1,47,18ZM36.8,15.868a2.746,2.746,0,0,1-1.266,1.522l-.893.506a2.74,2.74,0,0,1-2.2.206l-.927-.312a2.711,2.711,0,0,1-.321-.156,17.919,17.919,0,0,1,5.714-2.891A2.739,2.739,0,0,1,36.8,15.868Z"/><path d="M32.38,26.548a2.748,2.748,0,0,1,1.793-1.618l.035-.009a2.705,2.705,0,0,1,1.581.045l1.409.472a2.731,2.731,0,0,1,1.17.77l.878.983a2.736,2.736,0,0,1,.552,2.683,1,1,0,1,0,1.9.635,4.74,4.74,0,0,0-.957-4.65l-.879-.983a4.743,4.743,0,0,0-2.027-1.335l-1.409-.472a4.714,4.714,0,0,0-2.7-.088l-.044.011a4.762,4.762,0,0,0-3.155,2.818l-.306.772a4.7,4.7,0,0,0,.867,4.9l.784.877a4.718,4.718,0,0,0,2.028,1.336l.915.306a4.733,4.733,0,0,0,3.81-.358,1,1,0,1,0-.977-1.744,2.735,2.735,0,0,1-2.2.206l-.915-.306a2.726,2.726,0,0,1-1.17-.772l-.784-.877a2.713,2.713,0,0,1-.5-2.826Z"/><path d="M41.261,44.042l.133.089a3.859,3.859,0,0,0,3.074.532l.611-.152A3.851,3.851,0,0,0,48,40.77v-.241a3.849,3.849,0,0,0-1.717-3.209l-.144-.095a3.84,3.84,0,0,0-4.278,0l-.6.4h0a3.857,3.857,0,0,0,0,6.418Zm.378-3.8a1.868,1.868,0,0,1,.731-.958l.6-.4a1.849,1.849,0,0,1,2.06,0l.143.095A1.853,1.853,0,0,1,46,40.529v.241a1.856,1.856,0,0,1-1.406,1.8l-.611.153a1.854,1.854,0,0,1-1.48-.257l-.133-.089A1.859,1.859,0,0,1,41.639,40.246Z"/><path d="M56,25.529a3.849,3.849,0,0,0-1.717-3.209l-.144-.095a3.84,3.84,0,0,0-4.278,0l-.6.4h0a3.857,3.857,0,0,0,0,6.418l.133.089a3.859,3.859,0,0,0,3.074.532l.611-.152A3.851,3.851,0,0,0,56,25.77Zm-2,.241a1.856,1.856,0,0,1-1.406,1.8l-.611.153a1.853,1.853,0,0,1-1.48-.257l-.133-.089a1.858,1.858,0,0,1,0-3.09l.6-.4a1.849,1.849,0,0,1,2.06,0l.143.1A1.853,1.853,0,0,1,54,25.529Z"/><path d="M56,35a3,3,0,1,0-3,3A3,3,0,0,0,56,35Zm-3,1a1,1,0,1,1,1-1A1,1,0,0,1,53,36Z"/><path d="M32,36.048a3,3,0,1,0,3,3A3,3,0,0,0,32,36.048Zm0,4a1,1,0,1,1,1-1A1,1,0,0,1,32,40.048Z"/><circle cx="46" cy="32" r="1"/><circle cx="27" cy="32" r="1"/><circle cx="44" cy="22" r="1"/><circle cx="53" cy="41" r="1"/><circle cx="48" cy="46" r="1"/><path d="M62,32a19.849,19.849,0,0,0-1.731-8.117,1,1,0,1,0-1.828.812A17.981,17.981,0,0,1,42,50c-.4,0-.793-.016-1.187-.043a4.6,4.6,0,0,0-1.075-2.091l-.883-.993a4.808,4.808,0,0,0-2.019-1.331l-1.4-.469a4.608,4.608,0,0,0-2.686-.095c-.024,0-.049.011-.073.018a4.731,4.731,0,0,0-1.893,1.043,18.038,18.038,0,0,1-3.32-3.458,1,1,0,1,0-1.616,1.178,20.06,20.06,0,0,0,5.563,5.171c-.473.042-.944.07-1.409.07A17,17,0,0,1,18.073,19.881a1,1,0,1,0-1.406-1.422A18.979,18.979,0,0,0,34.382,50.474l.008,0A19.923,19.923,0,0,0,40.124,51.9a6.264,6.264,0,0,0-.918,2.318A6.54,6.54,0,0,0,30,56.043a6.54,6.54,0,0,0-9.2-1.826A6.545,6.545,0,0,0,13,49a6.331,6.331,0,0,0,.049-2.522,1,1,0,0,0-1.968.36,4.323,4.323,0,0,1-.712,3.276l-.28.41a1,1,0,0,0,1.391,1.389l.406-.277a4.488,4.488,0,0,1,6.91,4.618l-.1.48a1,1,0,0,0,1.814.754l.27-.409a4.487,4.487,0,0,1,8.152,1.609l.09.491a1,1,0,0,0,1.966,0l.089-.482a4.487,4.487,0,0,1,8.153-1.619l.27.41a1,1,0,0,0,1.814-.754l-.1-.477a4.413,4.413,0,0,1,1.47-4.293A20.01,20.01,0,0,0,62,32ZM33.151,46.94l.071-.017a2.611,2.611,0,0,1,1.571.045l1.4.467a2.782,2.782,0,0,1,1.168.769l.888,1a2.7,2.7,0,0,1,.326.458,18.028,18.028,0,0,1-6.09-2.414A2.771,2.771,0,0,1,33.151,46.94Z"/></g></svg>
