<?xml version="1.0" standalone="no"?><svg xmlns="http://www.w3.org/2000/svg" viewBox="0 0 1440 320"><path fill="#ffd700" fill-opacity="1" d="M0,64L15,101.3C30,139,60,213,90,229.3C120,245,150,203,180,176C210,149,240,139,270,144C300,149,330,171,360,154.7C390,139,420,85,450,53.3C480,21,510,11,540,48C570,85,600,171,630,208C660,245,690,235,720,202.7C750,171,780,117,810,101.3C840,85,870,107,900,117.3C930,128,960,128,990,154.7C1020,181,1050,235,1080,245.3C1110,256,1140,224,1170,229.3C1200,235,1230,277,1260,250.7C1290,224,1320,128,1350,96C1380,64,1410,96,1425,112L1440,128L1440,320L1425,320C1410,320,1380,320,1350,320C1320,320,1290,320,1260,320C1230,320,1200,320,1170,320C1140,320,1110,320,1080,320C1050,320,1020,320,990,320C960,320,930,320,900,320C870,320,840,320,810,320C780,320,750,320,720,320C690,320,660,320,630,320C600,320,570,320,540,320C510,320,480,320,450,320C420,320,390,320,360,320C330,320,300,320,270,320C240,320,210,320,180,320C150,320,120,320,90,320C60,320,30,320,15,320L0,320Z"></path></svg>