<svg id="visual" viewBox="0 0 2400 1400" width="2400" height="1400" xmlns="http://www.w3.org/2000/svg" xmlns:xlink="http://www.w3.org/1999/xlink" version="1.1"><path d="M0 155L218 99L436 197L655 211L873 113L1091 267L1309 239L1527 127L1745 295L1964 183L2182 211L2400 99L2400 0L2182 0L1964 0L1745 0L1527 0L1309 0L1091 0L873 0L655 0L436 0L218 0L0 0Z" fill="#f6e58d"></path><path d="M0 323L218 295L436 421L655 421L873 323L1091 407L1309 421L1527 239L1745 421L1964 295L2182 421L2400 295L2400 97L2182 209L1964 181L1745 293L1527 125L1309 237L1091 265L873 111L655 209L436 195L218 97L0 153Z" fill="#f7df74"></path><path d="M0 687L218 799L436 813L655 743L873 743L1091 799L1309 687L1527 687L1745 799L1964 925L2182 939L2400 533L2400 293L2182 419L1964 293L1745 419L1527 237L1309 419L1091 405L873 321L655 419L436 419L218 293L0 321Z" fill="#f9d959"></path><path d="M0 1233L218 1205L436 1219L655 1093L873 1219L1091 1093L1309 1093L1527 1205L1745 1121L1964 1275L2182 1261L2400 1177L2400 531L2182 937L1964 923L1745 797L1527 685L1309 685L1091 797L873 741L655 741L436 811L218 797L0 685Z" fill="#fcd33a"></path><path d="M0 1401L218 1401L436 1401L655 1401L873 1401L1091 1401L1309 1401L1527 1401L1745 1401L1964 1401L2182 1401L2400 1401L2400 1175L2182 1259L1964 1273L1745 1119L1527 1203L1309 1091L1091 1091L873 1217L655 1091L436 1217L218 1203L0 1231Z" fill="#ffcc00"></path></svg>